<svg xmlns="http://www.w3.org/2000/svg" viewBox="0 0 1200 600" width="1200" height="600">
  <!-- Border (outer area) - 120' x 60' -->
  <rect id="border" x="0" y="0" width="1200" height="600" fill="#228B22" stroke="none"/>
  
  <!-- Pickleball courts (with fill since they're primary) -->
  <g id="court">
    <!-- Left court -->
    <rect x="133" y="220" width="350" height="160" fill="#0066CC" stroke="none"/>
    <!-- Right court -->
    <rect x="718" y="220" width="350" height="160" fill="#0066CC" stroke="none"/>
  </g>
  
  <!-- Secondary Lines - Tennis (yellow/light blue by default) -->
  <g id="secondaryLines" stroke="#FFFF00" stroke-width="2" fill="none" opacity="0.7">
    <!-- Court outline -->
    <rect x="210" y="120" width="780" height="360"/>
    
    <!-- Singles sidelines -->
    <line x1="210" y1="165" x2="990" y2="165"/>
    <line x1="210" y1="435" x2="990" y2="435"/>
    
    <!-- Service lines -->
    <line x1="390" y1="165" x2="390" y2="435"/>
    <line x1="810" y1="165" x2="810" y2="435"/>
    
    <!-- Net line -->
    <line x1="600" y1="120" x2="600" y2="480" stroke-width="3"/>
    
    <!-- Center service line -->
    <line x1="390" y1="300" x2="810" y2="300"/>
    
    <!-- Center marks -->
    <line x1="210" y1="295" x2="210" y2="305" stroke-width="2"/>
    <line x1="990" y1="295" x2="990" y2="305" stroke-width="2"/>
  </g>
  
  <!-- Primary Lines - 2 Pickleball courts (white by default) -->
  <!-- Using same layout as tennis-2pb but with pickleball as primary -->
  <g id="primaryLines" stroke="white" stroke-width="3" fill="none">
    <!-- Left Pickleball court (net line at 12.5% = x=308) -->
    <rect x="133" y="220" width="350" height="160"/>
    
    <!-- Left court net line -->
    <line x1="308" y1="220" x2="308" y2="380" stroke-width="4"/>
    
    <!-- Left court non-volley zones (56 units from net) -->
    <line x1="252" y1="220" x2="252" y2="380"/>
    <line x1="364" y1="220" x2="364" y2="380"/>
    
    <!-- Left court service center lines -->
    <line x1="133" y1="300" x2="252" y2="300"/>
    <line x1="364" y1="300" x2="483" y2="300"/>
    
    <!-- Left court baseline center marks -->
    <line x1="133" y1="295" x2="133" y2="305" stroke-width="2"/>
    <line x1="483" y1="295" x2="483" y2="305" stroke-width="2"/>
    
    <!-- Right Pickleball court (net line at 87.5% = x=893) -->
    <rect x="718" y="220" width="350" height="160"/>
    
    <!-- Right court net line -->
    <line x1="893" y1="220" x2="893" y2="380" stroke-width="4"/>
    
    <!-- Right court non-volley zones -->
    <line x1="837" y1="220" x2="837" y2="380"/>
    <line x1="949" y1="220" x2="949" y2="380"/>
    
    <!-- Right court service center lines -->
    <line x1="718" y1="300" x2="837" y2="300"/>
    <line x1="949" y1="300" x2="1068" y2="300"/>
    
    <!-- Right court baseline center marks -->
    <line x1="718" y1="295" x2="718" y2="305" stroke-width="2"/>
    <line x1="1068" y1="295" x2="1068" y2="305" stroke-width="2"/>
  </g>
  
  <!-- Net post indicators for pickleball (primary) -->
  <circle cx="308" cy="220" r="4" fill="white"/>
  <circle cx="308" cy="380" r="4" fill="white"/>
  <circle cx="893" cy="220" r="4" fill="white"/>
  <circle cx="893" cy="380" r="4" fill="white"/>
  
  <!-- Net post indicators for tennis (secondary) -->
  <circle cx="600" cy="120" r="3" fill="#FFFF00" opacity="0.7"/>
  <circle cx="600" cy="480" r="3" fill="#FFFF00" opacity="0.7"/>
  
  <!-- Logo area below court -->
  <g id="logoArea">
    <rect id="logoBackground" x="0" y="500" width="1200" height="100" fill="#228B22"/>
    <image id="courtLogo" x="500" y="510" width="200" height="80" href="" preserveAspectRatio="xMidYMid meet"/>
  </g>
</svg>