<svg xmlns="http://www.w3.org/2000/svg" viewBox="0 0 940 570" width="940" height="570">
  <!-- Border -->
  <rect id="border" x="0" y="0" width="940" height="570" fill="#228B22" stroke="none"/>
  
  <!-- Court (main playing surface) -->
  <rect id="court" x="20" y="25" width="900" height="450" fill="#D2691E" stroke="white" stroke-width="2"/>
  
  <!-- 3-Point Areas - Areas OUTSIDE the arc line, between arc and sideline -->
  <g id="threePointArea">
    <!-- Left side 3-point area - narrow area between arc and sideline -->
    <path d="M 20 25 L 80 25 L 80 195 A 237 237 0 0 1 80 305 L 80 475 L 20 475 Z" fill="#FF6600"/>
    <!-- Right side 3-point area - narrow area between arc and sideline -->
    <path d="M 860 25 L 920 25 L 920 475 L 860 475 L 860 305 A 237 237 0 0 1 860 195 Z" fill="#FF6600"/>
  </g>
  
  <!-- Keys (paint areas near baskets) -->
  <g id="key">
    <!-- Left key -->
    <rect x="20" y="195" width="160" height="110" fill="#0066CC" stroke="white" stroke-width="2"/>
    <!-- Right key -->
    <rect x="760" y="195" width="160" height="110" fill="#0066CC" stroke="white" stroke-width="2"/>
  </g>
  
  <!-- Top of Key circles (free throw semicircles) -->
  <g id="topOfKey">
    <!-- Left semicircle -->
    <path d="M 180 190 A 60 60 0 0 1 180 310" fill="#663399" stroke="white" stroke-width="2"/>
    <!-- Right semicircle -->
    <path d="M 760 190 A 60 60 0 0 0 760 310" fill="#663399" stroke="white" stroke-width="2"/>
  </g>
  
  <!-- Center Court Circle -->
  <circle id="centerCourtCircle" cx="470" cy="250" r="60" fill="#800000" stroke="white" stroke-width="2"/>
  
  <!-- Court lines -->
  <g stroke="white" stroke-width="2" fill="none">
    <!-- Center line -->
    <line x1="470" y1="25" x2="470" y2="475"/>
    
    <!-- Free throw circles -->
    <circle cx="180" cy="250" r="60"/>
    <circle cx="760" cy="250" r="60"/>
    
    <!-- 3-point arc lines -->
    <path d="M 80 25 L 80 195 A 237 237 0 0 0 80 305 L 80 475"/>
    <path d="M 860 25 L 860 195 A 237 237 0 0 1 860 305 L 860 475"/>
    
    <!-- Baskets -->
    <circle cx="75" cy="250" r="6"/>
    <circle cx="865" cy="250" r="6"/>
    
    <!-- Backboards -->
    <line x1="63" y1="240" x2="63" y2="260" stroke-width="3"/>
    <line x1="877" y1="240" x2="877" y2="260" stroke-width="3"/>
  </g>
  
  <!-- Logo area below court -->
  <g id="logoArea">
    <rect id="logoBackground" x="0" y="500" width="940" height="70" fill="#228B22"/>
    <image id="courtLogo" x="370" y="505" width="200" height="60" href="" preserveAspectRatio="xMidYMid meet"/>
  </g>
</svg>