<svg xmlns="http://www.w3.org/2000/svg" viewBox="0 0 2900 1800" width="940" height="570">
  <!-- Border -->
  <rect id="border" x="0" y="0" width="2900" height="1800" fill="#228B22" stroke="none"/>
  
  <!-- Court (main playing surface) - rotated 90 degrees -->
  <rect id="court" x="50" y="50" width="2800" height="1500" fill="#D2691E" stroke="white" stroke-width="10"/>
  
  <!-- 3-Point Areas - the curved areas between the 3-point line and the key, extending to court edges -->
  <g id="threePointArea">
    <!-- Left 3-point area (from court edge to key) -->
    <path d="M 50 175 L 207.5 175 A 625 625 0 0 1 207.5 1425 L 50 1425 L 50 980 L 630 980 L 630 620 L 50 620 Z" fill="#FF6600"/>
    <!-- Right 3-point area (from key to court edge) -->
    <path d="M 2850 175 L 2692.5 175 A 625 625 0 0 0 2692.5 1425 L 2850 1425 L 2850 980 L 2270 980 L 2270 620 L 2850 620 Z" fill="#FF6600"/>
  </g>
  
  <!-- Keys (paint areas near baskets) -->
  <g id="key">
    <!-- Left key - width should match free throw circle diameter (360px) -->
    <rect x="50" y="620" width="580" height="360" fill="#0066CC" stroke="white" stroke-width="10"/>
    <!-- Right key -->
    <rect x="2270" y="620" width="580" height="360" fill="#0066CC" stroke="white" stroke-width="10"/>
  </g>
  
  <!-- Top of Key circles (free throw semicircles) -->
  <g id="topOfKey">
    <!-- Left semicircle - connects to key at x=630 -->
    <path d="M 630 620 A 180 180 0 0 1 630 980" fill="#663399" stroke="white" stroke-width="10"/>
    <!-- Right semicircle - connects to key at x=2270 -->
    <path d="M 2270 980 A 180 180 0 0 1 2270 620" fill="#663399" stroke="white" stroke-width="10"/>
  </g>
  
  <!-- Center Court Circle -->
  <circle id="centerCourtCircle" cx="1450" cy="800" r="180" fill="#800000" stroke="white" stroke-width="10"/>
  
  <!-- Court lines -->
  <g stroke="white" stroke-width="10" fill="none">
    <!-- Center line -->
    <line x1="1450" y1="50" x2="1450" y2="1550"/>
    
    <!-- Free throw circles -->
    <circle cx="630" cy="800" r="180"/>
    <circle cx="2270" cy="800" r="180"/>
    
    <!-- 3-point lines (rotated from vertical to horizontal) -->
    <!-- Left 3-point line -->
    <line x1="50" y1="175" x2="207.5" y2="175"/>
    <path d="M 207.5,175 A 625,625 0 0,1 207.5,1425"/>
    <line x1="207.5" y1="1425" x2="50" y2="1425"/>
    
    <!-- Right 3-point line -->
    <line x1="2850" y1="175" x2="2692.5" y2="175"/>
    <path d="M 2692.5,175 A 625,625 0 0,0 2692.5,1425"/>
    <line x1="2692.5" y1="1425" x2="2850" y2="1425"/>
    
    <!-- Baskets -->
    <circle cx="157.5" cy="800" r="20"/>
    <circle cx="2742.5" cy="800" r="20"/>
    
    <!-- Backboards -->
    <line x1="170" y1="710" x2="170" y2="890" stroke-width="20"/>
    <line x1="2730" y1="710" x2="2730" y2="890" stroke-width="20"/>
  </g>
  
  <!-- Logo area below court -->
  <g id="logoArea">
    <rect id="logoBackground" x="0" y="1600" width="2900" height="200" fill="#228B22"/>
    <image id="courtLogo" x="1250" y="1620" width="400" height="160" href="" preserveAspectRatio="xMidYMid meet"/>
  </g>
</svg>