<svg xmlns="http://www.w3.org/2000/svg" viewBox="0 0 640 400" width="640" height="400">
  <!-- Border (64' x 40' total area) -->
  <rect id="border" x="0" y="0" width="640" height="400" fill="#228B22" stroke="none"/>

  <!-- Court (44' x 20' = 440 x 200 units) -->
  <!-- Centered: 10' margins = 100 units on left/right, 10' = 100 units top/bottom -->
  <rect id="court" x="100" y="100" width="440" height="200" fill="#0066CC" stroke="none"/>

  <!-- Non-volley zone (kitchen) fill - gray area, colorable -->
  <!-- 14' wide (from x=250 to x=390 = 140 units) by full court height -->
  <g id="nonVolleyZone">
    <rect x="250" y="100" width="140" height="200" fill="#C0C0C0" stroke="none"/>
  </g>

  <!-- Primary Lines - Pickleball (white by default) -->
  <g id="primaryLines" stroke="white" stroke-width="2" fill="none">
    <!-- Court outline -->
    <rect x="100" y="100" width="440" height="200"/>

    <!-- Non-volley zone lines (kitchen) - 7 feet from net = 70 units -->
    <!-- Only the kitchen boundary lines, not the center net line -->
    <line x1="250" y1="100" x2="250" y2="300"/>
    <line x1="390" y1="100" x2="390" y2="300"/>

    <!-- Service area center lines (only on left and right sides, not through middle) -->
    <line x1="100" y1="200" x2="250" y2="200"/>
    <line x1="390" y1="200" x2="540" y2="200"/>

    <!-- Baseline center marks -->
    <line x1="100" y1="195" x2="100" y2="205" stroke-width="2"/>
    <line x1="540" y1="195" x2="540" y2="205" stroke-width="2"/>

    <!-- Net posts -->
    <circle cx="320" cy="100" r="3" fill="white"/>
    <circle cx="320" cy="300" r="3" fill="white"/>
  </g>

  <!-- Secondary Lines - Half-Court Basketball (cyan/turquoise) -->
  <!-- Basket at TOP of court, 3-point arc extends DOWN into court -->
  <g id="secondaryLines" stroke="#00CED1" stroke-width="2.5" fill="none">

    <!-- Basket position - at top baseline of pickleball court -->
    <!-- Basket at x=320 (center), y=100 (at the court edge) -->

    <!-- Key - 12' wide x 19' deep (120 x 190 units) -->
    <!-- Centered at x=320, width=120, so x: 260-380 -->
    <!-- Starts at y=60, extends to y=235 (175 units) to align with free throw line -->
    <rect x="260" y="60" width="120" height="175"/>

    <!-- Free throw line - mathematically positioned for tangency -->
    <!-- 3-point arc: center (320,100), radius 195 -->
    <!-- Free throw circle: radius 60 -->
    <!-- For tangency: distance between centers = 195 - 60 = 135 -->
    <!-- So y = 100 + 135 = 235 -->
    <line x1="260" y1="235" x2="380" y2="235"/>

    <!-- Top of key semicircle - 6' radius at free throw line -->
    <!-- Opens toward basket (upward) - only the semicircle, not full circle -->
    <path d="M 260 235 A 60 60 0 0 0 380 235"/>

    <!-- 3-point arc - 19'6" = 195 units from basket at (320, 100) -->
    <!-- Arc sweeps DOWN into court -->
    <path d="M 125 100 A 195 195 0 1 0 515 100"/>

    <!-- 3-point straight sections extend UPWARD from arc endpoints into border area -->
    <!-- These lines go from the arc endpoints UP about 4-5 feet (40-50 units) -->
    <line x1="125" y1="100" x2="125" y2="55"/>
    <line x1="515" y1="100" x2="515" y2="55"/>

    <!-- Basket (hoop) - 18" diameter -->
    <!-- Positioned at y=100 (at pickleball baseline) -->
    <circle cx="320" cy="100" r="9"/>

    <!-- Backboard - 6' wide, 1' above pickleball baseline (y=90) -->
    <line x1="290" y1="90" x2="350" y2="90" stroke-width="4"/>

  </g>

  <!-- Logo area -->
  <g id="logoArea">
    <rect id="logoBackground" x="0" y="330" width="640" height="70" fill="#228B22"/>
    <image id="courtLogo" x="220" y="340" width="200" height="50" href="" preserveAspectRatio="xMidYMid meet"/>
  </g>
</svg>
