<svg xmlns="http://www.w3.org/2000/svg" viewBox="0 0 640 400" width="640" height="400">
  <!-- Border with larger margins (64' x 40' total area) -->
  <rect id="border" x="0" y="0" width="640" height="400" fill="#228B22" stroke="none"/>
  
  <!-- Court (44 x 20 feet = 440 x 200 units) -->
  <!-- Centered with 10' margins on each side -->
  <rect id="court" x="100" y="100" width="440" height="200" fill="#0066CC" stroke="none"/>
  
  <!-- Non-Volley Zones (Kitchen) - 7 feet from net = 70 units -->
  <!-- Net is at x=320 (center), so kitchen zones are 250-320 and 320-390 -->
  <g id="nonVolleyZone">
    <!-- Left non-volley zone (7 feet before net) -->
    <rect x="250" y="100" width="70" height="200" fill="#FFD700" stroke="none"/>
    <!-- Right non-volley zone (7 feet after net) -->
    <rect x="320" y="100" width="70" height="200" fill="#FFD700" stroke="none"/>
  </g>
  
  <!-- Court lines -->
  <g id="lines" stroke="white" stroke-width="2" fill="none">
    <!-- Court outline -->
    <rect x="100" y="100" width="440" height="200"/>
    
    <!-- Non-volley zone lines (kitchen) -->
    <line x1="250" y1="100" x2="250" y2="300"/>
    <line x1="320" y1="100" x2="320" y2="300"/>
    <line x1="390" y1="100" x2="390" y2="300"/>
    
    <!-- Net line (center at 22 feet = 220 units from baseline) -->
    <line x1="320" y1="100" x2="320" y2="300" stroke-width="3" stroke-dasharray="5,5" opacity="0.7"/>
    
    <!-- Service area dividing lines (center lines) -->
    <!-- Left service court center line -->
    <line x1="100" y1="200" x2="250" y2="200"/>
    <!-- Right service court center line -->
    <line x1="390" y1="200" x2="540" y2="200"/>
    <!-- Middle service line between kitchen zones -->
    <line x1="250" y1="200" x2="390" y2="200"/>
    
    <!-- Baseline center marks (small marks at center of baselines) -->
    <line x1="100" y1="195" x2="100" y2="205" stroke-width="2"/>
    <line x1="540" y1="195" x2="540" y2="205" stroke-width="2"/>
    
    <!-- Net posts -->
    <circle cx="320" cy="100" r="3" fill="white"/>
    <circle cx="320" cy="300" r="3" fill="white"/>
  </g>
  
  <!-- Logo area below court -->
  <g id="logoArea">
    <rect id="logoBackground" x="0" y="330" width="640" height="70" fill="#228B22"/>
    <image id="courtLogo" x="220" y="340" width="200" height="50" href="" preserveAspectRatio="xMidYMid meet"/>
  </g>
</svg>