<svg xmlns="http://www.w3.org/2000/svg" viewBox="0 0 1200 600" width="1200" height="600">
  <!-- Border (outer area) - 120' x 60' -->
  <rect id="border" x="0" y="0" width="1200" height="600" fill="#228B22" stroke="none"/>
  
  <!-- Court (inner play area) - 78' x 36' = 780 x 360 units -->
  <!-- Margins: 21' on ends = 210 units, 12' on sides = 120 units -->
  <rect id="court" x="210" y="120" width="780" height="360" fill="#0066CC" stroke="none"/>
  
  <!-- Court lines -->
  <g id="lines" stroke="white" stroke-width="3" fill="none">
    <!-- Court outline -->
    <rect x="210" y="120" width="780" height="360"/>
    
    <!-- Singles sidelines (27' width = 270 units, so 45 units in from doubles) -->
    <line x1="210" y1="165" x2="990" y2="165"/>
    <line x1="210" y1="435" x2="990" y2="435"/>
    
    <!-- Service lines (21' from net = 210 units) -->
    <line x1="390" y1="165" x2="390" y2="435"/>
    <line x1="810" y1="165" x2="810" y2="435"/>
    
    <!-- Net line (center at 39' = 390 units from baseline) -->
    <line x1="600" y1="120" x2="600" y2="480" stroke-width="4"/>
    
    <!-- Center service line (divides service boxes) -->
    <line x1="390" y1="300" x2="810" y2="300"/>
    
    <!-- Center mark on baselines (6" marks) -->
    <line x1="210" y1="295" x2="210" y2="305" stroke-width="2"/>
    <line x1="990" y1="295" x2="990" y2="305" stroke-width="2"/>
  </g>
  
  <!-- Net post indicators -->
  <circle cx="600" cy="120" r="4" fill="white"/>
  <circle cx="600" cy="480" r="4" fill="white"/>
  
  <!-- Logo area below court -->
  <g id="logoArea">
    <rect id="logoBackground" x="0" y="500" width="1200" height="100" fill="#228B22"/>
    <image id="courtLogo" x="500" y="510" width="200" height="80" href="" preserveAspectRatio="xMidYMid meet"/>
  </g>
</svg>