<svg xmlns="http://www.w3.org/2000/svg" viewBox="0 0 880 530" width="880" height="530">
  <!-- Border (outer area) -->
  <rect id="border" x="0" y="0" width="880" height="530" fill="#228B22" stroke="none"/>
  
  <!-- Court (inner play area) - 78:36 feet ratio = 780:360 units -->
  <rect id="court" x="50" y="50" width="780" height="360" fill="#0066CC" stroke="white" stroke-width="2"/>
  
  <!-- Court lines -->
  <g stroke="white" stroke-width="3" fill="none">
    <!-- Baselines (left and right) -->
    <line x1="50" y1="50" x2="50" y2="410"/>
    <line x1="830" y1="50" x2="830" y2="410"/>
    
    <!-- Singles sidelines (27 feet = 270 units, so 45 units inset from doubles) -->
    <line x1="50" y1="95" x2="830" y2="95"/>
    <line x1="50" y1="365" x2="830" y2="365"/>
    
    <!-- Doubles sidelines (36 feet = 360 units) -->
    <line x1="50" y1="50" x2="830" y2="50"/>
    <line x1="50" y1="410" x2="830" y2="410"/>
    
    <!-- Service lines (21 feet from net = 210 units) -->
    <line x1="280" y1="95" x2="280" y2="365"/>
    <line x1="600" y1="95" x2="600" y2="365"/>
    
    <!-- Net line (center at 39 feet = 390 units) -->
    <line x1="440" y1="50" x2="440" y2="410" stroke-width="4"/>
    
    <!-- Center service line (divides service boxes) -->
    <line x1="280" y1="230" x2="600" y2="230"/>
    
    <!-- Center mark on baselines -->
    <line x1="50" y1="225" x2="50" y2="235" stroke-width="2"/>
    <line x1="830" y1="225" x2="830" y2="235" stroke-width="2"/>
  </g>
  
  <!-- Net post indicators -->
  <circle cx="440" cy="50" r="4" fill="white"/>
  <circle cx="440" cy="410" r="4" fill="white"/>
  
  <!-- Logo area below court -->
  <g id="logoArea">
    <rect id="logoBackground" x="0" y="460" width="880" height="70" fill="#228B22"/>
    <image id="courtLogo" x="340" y="465" width="200" height="60" href="" preserveAspectRatio="xMidYMid meet"/>
  </g>
</svg>