<svg xmlns="http://www.w3.org/2000/svg" viewBox="0 0 1200 600" width="1200" height="600">
  <!-- Border (outer area) - 120' x 60' -->
  <rect id="border" x="0" y="0" width="1200" height="600" fill="#228B22" stroke="none"/>
  
  <!-- Court (inner play area) - 78' x 36' = 780 x 360 units -->
  <rect id="court" x="210" y="120" width="780" height="360" fill="#0066CC" stroke="none"/>
  
  <!-- Primary Lines - Tennis (white by default) -->
  <g id="primaryLines" stroke="white" stroke-width="3" fill="none">
    <!-- Court outline -->
    <rect x="210" y="120" width="780" height="360"/>
    
    <!-- Singles sidelines -->
    <line x1="210" y1="165" x2="990" y2="165"/>
    <line x1="210" y1="435" x2="990" y2="435"/>
    
    <!-- Service lines -->
    <line x1="390" y1="165" x2="390" y2="435"/>
    <line x1="810" y1="165" x2="810" y2="435"/>
    
    <!-- Net line -->
    <line x1="600" y1="120" x2="600" y2="480" stroke-width="4"/>
    
    <!-- Center service line -->
    <line x1="390" y1="300" x2="810" y2="300"/>
    
    <!-- Center marks -->
    <line x1="210" y1="295" x2="210" y2="305" stroke-width="2"/>
    <line x1="990" y1="295" x2="990" y2="305" stroke-width="2"/>
  </g>
  
  <!-- Secondary Lines - 2 Pickleball courts -->
  <!-- Tennis court from x=210 to x=990 (780 units total) -->
  <!-- 12.5% position: 210 + (780 * 0.125) = 210 + 97.5 = 308 -->
  <!-- 87.5% position: 210 + (780 * 0.875) = 210 + 682.5 = 893 -->
  <!-- Each pickleball court is 350 x 160 units -->
  <g id="secondaryLines" stroke="#FFFF00" stroke-width="2" fill="none" opacity="0.8">
    <!-- Left Pickleball court (net line at 12.5% = x=308) -->
    <!-- Net at x=308, court extends 175 units each direction -->
    <!-- Court goes from x=133 to x=483 -->
    <rect x="133" y="220" width="350" height="160"/>
    
    <!-- Left court net line (at 12.5% position) -->
    <line x1="308" y1="220" x2="308" y2="380" stroke-width="3"/>
    
    <!-- Left court non-volley zones (56 units from net = 7' scaled) -->
    <line x1="252" y1="220" x2="252" y2="380"/>
    <line x1="364" y1="220" x2="364" y2="380"/>
    
    <!-- Left court service center lines -->
    <line x1="133" y1="300" x2="252" y2="300"/>
    <line x1="364" y1="300" x2="483" y2="300"/>
    
    <!-- Left court baseline center marks -->
    <line x1="133" y1="295" x2="133" y2="305" stroke-width="2"/>
    <line x1="483" y1="295" x2="483" y2="305" stroke-width="2"/>
    
    <!-- Right Pickleball court (net line at 87.5% = x=893) -->
    <!-- Net at x=893, court extends 175 units each direction -->
    <!-- Court goes from x=718 to x=1068 -->
    <rect x="718" y="220" width="350" height="160"/>
    
    <!-- Right court net line (at 87.5% position) -->
    <line x1="893" y1="220" x2="893" y2="380" stroke-width="3"/>
    
    <!-- Right court non-volley zones -->
    <line x1="837" y1="220" x2="837" y2="380"/>
    <line x1="949" y1="220" x2="949" y2="380"/>
    
    <!-- Right court service center lines -->
    <line x1="718" y1="300" x2="837" y2="300"/>
    <line x1="949" y1="300" x2="1068" y2="300"/>
    
    <!-- Right court baseline center marks -->
    <line x1="718" y1="295" x2="718" y2="305" stroke-width="2"/>
    <line x1="1068" y1="295" x2="1068" y2="305" stroke-width="2"/>
  </g>
  
  <!-- Net post indicators for tennis -->
  <circle cx="600" cy="120" r="4" fill="white"/>
  <circle cx="600" cy="480" r="4" fill="white"/>
  
  <!-- Net post indicators for pickleball courts -->
  <circle cx="308" cy="220" r="3" fill="#FFFF00" opacity="0.8"/>
  <circle cx="308" cy="380" r="3" fill="#FFFF00" opacity="0.8"/>
  <circle cx="893" cy="220" r="3" fill="#FFFF00" opacity="0.8"/>
  <circle cx="893" cy="380" r="3" fill="#FFFF00" opacity="0.8"/>
  
  <!-- Logo area below court -->
  <g id="logoArea">
    <rect id="logoBackground" x="0" y="500" width="1200" height="100" fill="#228B22"/>
    <image id="courtLogo" x="500" y="510" width="200" height="80" href="" preserveAspectRatio="xMidYMid meet"/>
  </g>
</svg>